<svg xmlns="http://www.w3.org/2000/svg" version="1.1" xmlns:xlink="http://www.w3.org/1999/xlink" xmlns:svgjs="http://svgjs.dev/svgjs" width="1440" height="560" preserveAspectRatio="none" viewBox="0 0 1440 560">
    <g mask="url(&quot;#SvgjsMask1028&quot;)" fill="none">
        <rect width="1440" height="560" x="0" y="0" fill="rgba(234, 234, 234, 1)"></rect>
        <path d="M-108.89 380.22L-108.89 380.22" stroke="rgba(203, 212, 194, 1)" stroke-width="1.5"></path>
        <path d="M-108.89 380.22L-77.59 488.44" stroke="rgba(203, 212, 194, 1)" stroke-width="1.5"></path>
        <path d="M-108.89 380.22L109.85 378.28" stroke="rgba(203, 212, 194, 1)" stroke-width="1.5"></path>
        <path d="M-108.89 380.22L44.58 551.52" stroke="rgba(203, 212, 194, 1)" stroke-width="1.5"></path>
        <path d="M-108.89 380.22L-56.74 668.27" stroke="rgba(203, 212, 194, 1)" stroke-width="1.5"></path>
        <path d="M-108.89 380.22L43.25 644.6" stroke="rgba(203, 212, 194, 1)" stroke-width="1.5"></path>
        <path d="M-108.89 380.22L199.83 392.9" stroke="rgba(203, 212, 194, 1)" stroke-width="1.5"></path>
        <path d="M-77.59 488.44L-77.59 488.44" stroke="rgba(203, 212, 194, 1)" stroke-width="1.5"></path>
        <path d="M-77.59 488.44L44.58 551.52" stroke="rgba(203, 212, 194, 1)" stroke-width="1.5"></path>
        <path d="M-77.59 488.44L-56.74 668.27" stroke="rgba(203, 212, 194, 1)" stroke-width="1.5"></path>
        <path d="M-77.59 488.44L43.25 644.6" stroke="rgba(203, 212, 194, 1)" stroke-width="1.5"></path>
        <path d="M-56.74 668.27L-56.74 668.27" stroke="rgba(203, 212, 194, 1)" stroke-width="1.5"></path>
        <path d="M-56.74 668.27L43.25 644.6" stroke="rgba(203, 212, 194, 1)" stroke-width="1.5"></path>
        <path d="M-56.74 668.27L44.58 551.52" stroke="rgba(203, 212, 194, 1)" stroke-width="1.5"></path>
        <path d="M-56.74 668.27L208.65 701.69" stroke="rgba(203, 212, 194, 1)" stroke-width="1.5"></path>
        <path d="M109.85 378.28L109.85 378.28" stroke="rgba(203, 212, 194, 1)" stroke-width="1.5"></path>
        <path d="M109.85 378.28L199.83 392.9" stroke="rgba(203, 212, 194, 1)" stroke-width="1.5"></path>
        <path d="M109.85 378.28L200.88 492.64" stroke="rgba(203, 212, 194, 1)" stroke-width="1.5"></path>
        <path d="M109.85 378.28L44.58 551.52" stroke="rgba(203, 212, 194, 1)" stroke-width="1.5"></path>
        <path d="M109.85 378.28L-77.59 488.44" stroke="rgba(203, 212, 194, 1)" stroke-width="1.5"></path>
        <path d="M44.58 551.52L44.58 551.52" stroke="rgba(203, 212, 194, 1)" stroke-width="1.5"></path>
        <path d="M44.58 551.52L43.25 644.6" stroke="rgba(203, 212, 194, 1)" stroke-width="1.5"></path>
        <path d="M44.58 551.52L200.88 492.64" stroke="rgba(203, 212, 194, 1)" stroke-width="1.5"></path>
        <path d="M44.58 551.52L199.83 392.9" stroke="rgba(203, 212, 194, 1)" stroke-width="1.5"></path>
        <path d="M43.25 644.6L43.25 644.6" stroke="rgba(203, 212, 194, 1)" stroke-width="1.5"></path>
        <path d="M43.25 644.6L208.65 701.69" stroke="rgba(203, 212, 194, 1)" stroke-width="1.5"></path>
        <path d="M43.25 644.6L200.88 492.64" stroke="rgba(203, 212, 194, 1)" stroke-width="1.5"></path>
        <path d="M199.83 392.9L199.83 392.9" stroke="rgba(203, 212, 194, 1)" stroke-width="1.5"></path>
        <path d="M199.83 392.9L200.88 492.64" stroke="rgba(203, 212, 194, 1)" stroke-width="1.5"></path>
        <path d="M200.88 492.64L200.88 492.64" stroke="rgba(203, 212, 194, 1)" stroke-width="1.5"></path>
        <path d="M208.65 701.69L208.65 701.69" stroke="rgba(203, 212, 194, 1)" stroke-width="1.5"></path>
        <path d="M208.65 701.69L341.15 700.93" stroke="rgba(203, 212, 194, 1)" stroke-width="1.5"></path>
        <path d="M208.65 701.69L200.88 492.64" stroke="rgba(203, 212, 194, 1)" stroke-width="1.5"></path>
        <path d="M342.16 373.8L342.16 373.8" stroke="rgba(203, 212, 194, 1)" stroke-width="1.5"></path>
        <path d="M342.16 373.8L199.83 392.9" stroke="rgba(203, 212, 194, 1)" stroke-width="1.5"></path>
        <path d="M342.16 373.8L200.88 492.64" stroke="rgba(203, 212, 194, 1)" stroke-width="1.5"></path>
        <path d="M341.15 700.93L341.15 700.93" stroke="rgba(203, 212, 194, 1)" stroke-width="1.5"></path>
        <path d="M341.15 700.93L507.51 640.11" stroke="rgba(203, 212, 194, 1)" stroke-width="1.5"></path>
        <path d="M341.15 700.93L488.04 542.37" stroke="rgba(203, 212, 194, 1)" stroke-width="1.5"></path>
        <path d="M341.15 700.93L200.88 492.64" stroke="rgba(203, 212, 194, 1)" stroke-width="1.5"></path>
        <path d="M341.15 700.93L43.25 644.6" stroke="rgba(203, 212, 194, 1)" stroke-width="1.5"></path>
        <path d="M488.04 542.37L488.04 542.37" stroke="rgba(203, 212, 194, 1)" stroke-width="1.5"></path>
        <path d="M488.04 542.37L507.51 640.11" stroke="rgba(203, 212, 194, 1)" stroke-width="1.5"></path>
        <path d="M488.04 542.37L646.54 531.43" stroke="rgba(203, 212, 194, 1)" stroke-width="1.5"></path>
        <path d="M488.04 542.37L342.16 373.8" stroke="rgba(203, 212, 194, 1)" stroke-width="1.5"></path>
        <path d="M488.04 542.37L687.44 368.37" stroke="rgba(203, 212, 194, 1)" stroke-width="1.5"></path>
        <path d="M507.51 640.11L507.51 640.11" stroke="rgba(203, 212, 194, 1)" stroke-width="1.5"></path>
        <path d="M507.51 640.11L646.54 531.43" stroke="rgba(203, 212, 194, 1)" stroke-width="1.5"></path>
        <path d="M507.51 640.11L208.65 701.69" stroke="rgba(203, 212, 194, 1)" stroke-width="1.5"></path>
        <path d="M710.13 205.76L710.13 205.76" stroke="rgba(203, 212, 194, 1)" stroke-width="1.5"></path>
        <path d="M710.13 205.76L821.53 208.89" stroke="rgba(203, 212, 194, 1)" stroke-width="1.5"></path>
        <path d="M710.13 205.76L687.44 368.37" stroke="rgba(203, 212, 194, 1)" stroke-width="1.5"></path>
        <path d="M710.13 205.76L791.69 370.51" stroke="rgba(203, 212, 194, 1)" stroke-width="1.5"></path>
        <path d="M687.44 368.37L687.44 368.37" stroke="rgba(203, 212, 194, 1)" stroke-width="1.5"></path>
        <path d="M687.44 368.37L791.69 370.51" stroke="rgba(203, 212, 194, 1)" stroke-width="1.5"></path>
        <path d="M687.44 368.37L646.54 531.43" stroke="rgba(203, 212, 194, 1)" stroke-width="1.5"></path>
        <path d="M687.44 368.37L821.53 208.89" stroke="rgba(203, 212, 194, 1)" stroke-width="1.5"></path>
        <path d="M687.44 368.37L847.58 508.84" stroke="rgba(203, 212, 194, 1)" stroke-width="1.5"></path>
        <path d="M687.44 368.37L937.96 371.67" stroke="rgba(203, 212, 194, 1)" stroke-width="1.5"></path>
        <path d="M646.54 531.43L646.54 531.43" stroke="rgba(203, 212, 194, 1)" stroke-width="1.5"></path>
        <path d="M821.53 208.89L821.53 208.89" stroke="rgba(203, 212, 194, 1)" stroke-width="1.5"></path>
        <path d="M821.53 208.89L791.69 370.51" stroke="rgba(203, 212, 194, 1)" stroke-width="1.5"></path>
        <path d="M821.53 208.89L986.61 234.61" stroke="rgba(203, 212, 194, 1)" stroke-width="1.5"></path>
        <path d="M791.69 370.51L791.69 370.51" stroke="rgba(203, 212, 194, 1)" stroke-width="1.5"></path>
        <path d="M791.69 370.51L937.96 371.67" stroke="rgba(203, 212, 194, 1)" stroke-width="1.5"></path>
        <path d="M791.69 370.51L847.58 508.84" stroke="rgba(203, 212, 194, 1)" stroke-width="1.5"></path>
        <path d="M847.58 508.84L847.58 508.84" stroke="rgba(203, 212, 194, 1)" stroke-width="1.5"></path>
        <path d="M847.58 508.84L945.38 528.16" stroke="rgba(203, 212, 194, 1)" stroke-width="1.5"></path>
        <path d="M847.58 508.84L937.96 371.67" stroke="rgba(203, 212, 194, 1)" stroke-width="1.5"></path>
        <path d="M847.58 508.84L811.03 698.19" stroke="rgba(203, 212, 194, 1)" stroke-width="1.5"></path>
        <path d="M811.03 698.19L811.03 698.19" stroke="rgba(203, 212, 194, 1)" stroke-width="1.5"></path>
        <path d="M811.03 698.19L1008.96 639.21" stroke="rgba(203, 212, 194, 1)" stroke-width="1.5"></path>
        <path d="M811.03 698.19L945.38 528.16" stroke="rgba(203, 212, 194, 1)" stroke-width="1.5"></path>
        <path d="M811.03 698.19L646.54 531.43" stroke="rgba(203, 212, 194, 1)" stroke-width="1.5"></path>
        <path d="M811.03 698.19L507.51 640.11" stroke="rgba(203, 212, 194, 1)" stroke-width="1.5"></path>
        <path d="M811.03 698.19L791.69 370.51" stroke="rgba(203, 212, 194, 1)" stroke-width="1.5"></path>
        <path d="M988.71 64.77L988.71 64.77" stroke="rgba(203, 212, 194, 1)" stroke-width="1.5"></path>
        <path d="M988.71 64.77L986.61 234.61" stroke="rgba(203, 212, 194, 1)" stroke-width="1.5"></path>
        <path d="M988.71 64.77L1161.45 38.22" stroke="rgba(203, 212, 194, 1)" stroke-width="1.5"></path>
        <path d="M988.71 64.77L1133.85 -71.55" stroke="rgba(203, 212, 194, 1)" stroke-width="1.5"></path>
        <path d="M988.71 64.77L1102.14 237.46" stroke="rgba(203, 212, 194, 1)" stroke-width="1.5"></path>
        <path d="M988.71 64.77L821.53 208.89" stroke="rgba(203, 212, 194, 1)" stroke-width="1.5"></path>
        <path d="M986.61 234.61L986.61 234.61" stroke="rgba(203, 212, 194, 1)" stroke-width="1.5"></path>
        <path d="M986.61 234.61L1102.14 237.46" stroke="rgba(203, 212, 194, 1)" stroke-width="1.5"></path>
        <path d="M986.61 234.61L937.96 371.67" stroke="rgba(203, 212, 194, 1)" stroke-width="1.5"></path>
        <path d="M986.61 234.61L1138.25 338.32" stroke="rgba(203, 212, 194, 1)" stroke-width="1.5"></path>
        <path d="M937.96 371.67L937.96 371.67" stroke="rgba(203, 212, 194, 1)" stroke-width="1.5"></path>
        <path d="M937.96 371.67L945.38 528.16" stroke="rgba(203, 212, 194, 1)" stroke-width="1.5"></path>
        <path d="M937.96 371.67L821.53 208.89" stroke="rgba(203, 212, 194, 1)" stroke-width="1.5"></path>
        <path d="M937.96 371.67L1138.25 338.32" stroke="rgba(203, 212, 194, 1)" stroke-width="1.5"></path>
        <path d="M945.38 528.16L945.38 528.16" stroke="rgba(203, 212, 194, 1)" stroke-width="1.5"></path>
        <path d="M945.38 528.16L1008.96 639.21" stroke="rgba(203, 212, 194, 1)" stroke-width="1.5"></path>
        <path d="M1008.96 639.21L1008.96 639.21" stroke="rgba(203, 212, 194, 1)" stroke-width="1.5"></path>
        <path d="M1008.96 639.21L847.58 508.84" stroke="rgba(203, 212, 194, 1)" stroke-width="1.5"></path>
        <path d="M1133.85 -71.55L1133.85 -71.55" stroke="rgba(203, 212, 194, 1)" stroke-width="1.5"></path>
        <path d="M1133.85 -71.55L1161.45 38.22" stroke="rgba(203, 212, 194, 1)" stroke-width="1.5"></path>
        <path d="M1133.85 -71.55L1260.05 -112.42" stroke="rgba(203, 212, 194, 1)" stroke-width="1.5"></path>
        <path d="M1161.45 38.22L1161.45 38.22" stroke="rgba(203, 212, 194, 1)" stroke-width="1.5"></path>
        <path d="M1161.45 38.22L1300.08 105.53" stroke="rgba(203, 212, 194, 1)" stroke-width="1.5"></path>
        <path d="M1161.45 38.22L1260.05 -112.42" stroke="rgba(203, 212, 194, 1)" stroke-width="1.5"></path>
        <path d="M1161.45 38.22L1102.14 237.46" stroke="rgba(203, 212, 194, 1)" stroke-width="1.5"></path>
        <path d="M1102.14 237.46L1102.14 237.46" stroke="rgba(203, 212, 194, 1)" stroke-width="1.5"></path>
        <path d="M1102.14 237.46L1138.25 338.32" stroke="rgba(203, 212, 194, 1)" stroke-width="1.5"></path>
        <path d="M1138.25 338.32L1138.25 338.32" stroke="rgba(203, 212, 194, 1)" stroke-width="1.5"></path>
        <path d="M1138.25 338.32L1262.44 349.7" stroke="rgba(203, 212, 194, 1)" stroke-width="1.5"></path>
        <path d="M1260.05 -112.42L1260.05 -112.42" stroke="rgba(203, 212, 194, 1)" stroke-width="1.5"></path>
        <path d="M1260.05 -112.42L1390.92 -68.2" stroke="rgba(203, 212, 194, 1)" stroke-width="1.5"></path>
        <path d="M1260.05 -112.42L1300.08 105.53" stroke="rgba(203, 212, 194, 1)" stroke-width="1.5"></path>
        <path d="M1260.05 -112.42L1415.98 92.14" stroke="rgba(203, 212, 194, 1)" stroke-width="1.5"></path>
        <path d="M1260.05 -112.42L988.71 64.77" stroke="rgba(203, 212, 194, 1)" stroke-width="1.5"></path>
        <path d="M1300.08 105.53L1300.08 105.53" stroke="rgba(203, 212, 194, 1)" stroke-width="1.5"></path>
        <path d="M1300.08 105.53L1415.98 92.14" stroke="rgba(203, 212, 194, 1)" stroke-width="1.5"></path>
        <path d="M1300.08 105.53L1294.79 231.27" stroke="rgba(203, 212, 194, 1)" stroke-width="1.5"></path>
        <path d="M1294.79 231.27L1294.79 231.27" stroke="rgba(203, 212, 194, 1)" stroke-width="1.5"></path>
        <path d="M1294.79 231.27L1262.44 349.7" stroke="rgba(203, 212, 194, 1)" stroke-width="1.5"></path>
        <path d="M1294.79 231.27L1439.68 246.56" stroke="rgba(203, 212, 194, 1)" stroke-width="1.5"></path>
        <path d="M1294.79 231.27L1415.98 92.14" stroke="rgba(203, 212, 194, 1)" stroke-width="1.5"></path>
        <path d="M1262.44 349.7L1262.44 349.7" stroke="rgba(203, 212, 194, 1)" stroke-width="1.5"></path>
        <path d="M1287.79 556.39L1287.79 556.39" stroke="rgba(203, 212, 194, 1)" stroke-width="1.5"></path>
        <path d="M1287.79 556.39L1399.46 557.3" stroke="rgba(203, 212, 194, 1)" stroke-width="1.5"></path>
        <path d="M1287.79 556.39L1394.06 669.89" stroke="rgba(203, 212, 194, 1)" stroke-width="1.5"></path>
        <path d="M1287.79 556.39L1262.44 349.7" stroke="rgba(203, 212, 194, 1)" stroke-width="1.5"></path>
        <path d="M1287.79 556.39L1441.84 373.04" stroke="rgba(203, 212, 194, 1)" stroke-width="1.5"></path>
        <path d="M1287.79 556.39L1551.53 558.79" stroke="rgba(203, 212, 194, 1)" stroke-width="1.5"></path>
        <path d="M1390.92 -68.2L1390.92 -68.2" stroke="rgba(203, 212, 194, 1)" stroke-width="1.5"></path>
        <path d="M1390.92 -68.2L1415.98 92.14" stroke="rgba(203, 212, 194, 1)" stroke-width="1.5"></path>
        <path d="M1390.92 -68.2L1538.55 54.76" stroke="rgba(203, 212, 194, 1)" stroke-width="1.5"></path>
        <path d="M1415.98 92.14L1415.98 92.14" stroke="rgba(203, 212, 194, 1)" stroke-width="1.5"></path>
        <path d="M1415.98 92.14L1538.55 54.76" stroke="rgba(203, 212, 194, 1)" stroke-width="1.5"></path>
        <path d="M1415.98 92.14L1439.68 246.56" stroke="rgba(203, 212, 194, 1)" stroke-width="1.5"></path>
        <path d="M1415.98 92.14L1553.79 196.47" stroke="rgba(203, 212, 194, 1)" stroke-width="1.5"></path>
        <path d="M1439.68 246.56L1439.68 246.56" stroke="rgba(203, 212, 194, 1)" stroke-width="1.5"></path>
        <path d="M1439.68 246.56L1553.79 196.47" stroke="rgba(203, 212, 194, 1)" stroke-width="1.5"></path>
        <path d="M1439.68 246.56L1441.84 373.04" stroke="rgba(203, 212, 194, 1)" stroke-width="1.5"></path>
        <path d="M1439.68 246.56L1538.84 340.91" stroke="rgba(203, 212, 194, 1)" stroke-width="1.5"></path>
        <path d="M1441.84 373.04L1441.84 373.04" stroke="rgba(203, 212, 194, 1)" stroke-width="1.5"></path>
        <path d="M1441.84 373.04L1538.84 340.91" stroke="rgba(203, 212, 194, 1)" stroke-width="1.5"></path>
        <path d="M1441.84 373.04L1262.44 349.7" stroke="rgba(203, 212, 194, 1)" stroke-width="1.5"></path>
        <path d="M1441.84 373.04L1399.46 557.3" stroke="rgba(203, 212, 194, 1)" stroke-width="1.5"></path>
        <path d="M1441.84 373.04L1294.79 231.27" stroke="rgba(203, 212, 194, 1)" stroke-width="1.5"></path>
        <path d="M1399.46 557.3L1399.46 557.3" stroke="rgba(203, 212, 194, 1)" stroke-width="1.5"></path>
        <path d="M1399.46 557.3L1394.06 669.89" stroke="rgba(203, 212, 194, 1)" stroke-width="1.5"></path>
        <path d="M1399.46 557.3L1551.53 558.79" stroke="rgba(203, 212, 194, 1)" stroke-width="1.5"></path>
        <path d="M1394.06 669.89L1394.06 669.89" stroke="rgba(203, 212, 194, 1)" stroke-width="1.5"></path>
        <path d="M1394.06 669.89L1551.53 558.79" stroke="rgba(203, 212, 194, 1)" stroke-width="1.5"></path>
        <path d="M1394.06 669.89L1587.13 675.37" stroke="rgba(203, 212, 194, 1)" stroke-width="1.5"></path>
        <path d="M1394.06 669.89L1441.84 373.04" stroke="rgba(203, 212, 194, 1)" stroke-width="1.5"></path>
        <path d="M1581.05 -38.39L1581.05 -38.39" stroke="rgba(203, 212, 194, 1)" stroke-width="1.5"></path>
        <path d="M1581.05 -38.39L1538.55 54.76" stroke="rgba(203, 212, 194, 1)" stroke-width="1.5"></path>
        <path d="M1581.05 -38.39L1390.92 -68.2" stroke="rgba(203, 212, 194, 1)" stroke-width="1.5"></path>
        <path d="M1581.05 -38.39L1415.98 92.14" stroke="rgba(203, 212, 194, 1)" stroke-width="1.5"></path>
        <path d="M1581.05 -38.39L1553.79 196.47" stroke="rgba(203, 212, 194, 1)" stroke-width="1.5"></path>
        <path d="M1538.55 54.76L1538.55 54.76" stroke="rgba(203, 212, 194, 1)" stroke-width="1.5"></path>
        <path d="M1538.55 54.76L1553.79 196.47" stroke="rgba(203, 212, 194, 1)" stroke-width="1.5"></path>
        <path d="M1538.55 54.76L1439.68 246.56" stroke="rgba(203, 212, 194, 1)" stroke-width="1.5"></path>
        <path d="M1553.79 196.47L1553.79 196.47" stroke="rgba(203, 212, 194, 1)" stroke-width="1.5"></path>
        <path d="M1553.79 196.47L1538.84 340.91" stroke="rgba(203, 212, 194, 1)" stroke-width="1.5"></path>
        <path d="M1553.79 196.47L1441.84 373.04" stroke="rgba(203, 212, 194, 1)" stroke-width="1.5"></path>
        <path d="M1538.84 340.91L1538.84 340.91" stroke="rgba(203, 212, 194, 1)" stroke-width="1.5"></path>
        <path d="M1538.84 340.91L1551.53 558.79" stroke="rgba(203, 212, 194, 1)" stroke-width="1.5"></path>
        <path d="M1551.53 558.79L1551.53 558.79" stroke="rgba(203, 212, 194, 1)" stroke-width="1.5"></path>
        <path d="M1551.53 558.79L1587.13 675.37" stroke="rgba(203, 212, 194, 1)" stroke-width="1.5"></path>
        <path d="M1551.53 558.79L1441.84 373.04" stroke="rgba(203, 212, 194, 1)" stroke-width="1.5"></path>
        <path d="M1587.13 675.37L1587.13 675.37" stroke="rgba(203, 212, 194, 1)" stroke-width="1.5"></path>
        <path d="M1587.13 675.37L1399.46 557.3" stroke="rgba(203, 212, 194, 1)" stroke-width="1.5"></path>
        <path d="M1587.13 675.37L1287.79 556.39" stroke="rgba(203, 212, 194, 1)" stroke-width="1.5"></path>
        <path d="M1587.13 675.37L1441.84 373.04" stroke="rgba(203, 212, 194, 1)" stroke-width="1.5"></path>
        <path d="M1587.13 675.37L1538.84 340.91" stroke="rgba(203, 212, 194, 1)" stroke-width="1.5"></path>
        <circle r="5" cx="-108.89" cy="380.22" fill="rgba(203, 212, 194, 1)"></circle>
        <circle r="5" cx="-77.59" cy="488.44" fill="rgba(203, 212, 194, 1)"></circle>
        <circle r="5" cx="-56.74" cy="668.27" fill="rgba(203, 212, 194, 1)"></circle>
        <circle r="5" cx="109.85" cy="378.28" fill="rgba(203, 212, 194, 1)"></circle>
        <circle r="5" cx="44.58" cy="551.52" fill="rgba(203, 212, 194, 1)"></circle>
        <circle r="5" cx="43.25" cy="644.6" fill="rgba(203, 212, 194, 1)"></circle>
        <circle r="5" cx="199.83" cy="392.9" fill="rgba(203, 212, 194, 1)"></circle>
        <circle r="5" cx="200.88" cy="492.64" fill="rgba(203, 212, 194, 1)"></circle>
        <circle r="5" cx="208.65" cy="701.69" fill="rgba(203, 212, 194, 1)"></circle>
        <circle r="5" cx="342.16" cy="373.8" fill="rgba(203, 212, 194, 1)"></circle>
        <circle r="5" cx="341.15" cy="700.93" fill="rgba(203, 212, 194, 1)"></circle>
        <circle r="5" cx="488.04" cy="542.37" fill="rgba(203, 212, 194, 1)"></circle>
        <circle r="5" cx="507.51" cy="640.11" fill="rgba(203, 212, 194, 1)"></circle>
        <circle r="5" cx="710.13" cy="205.76" fill="rgba(203, 212, 194, 1)"></circle>
        <circle r="5" cx="687.44" cy="368.37" fill="rgba(203, 212, 194, 1)"></circle>
        <circle r="5" cx="646.54" cy="531.43" fill="rgba(203, 212, 194, 1)"></circle>
        <circle r="5" cx="821.53" cy="208.89" fill="rgba(203, 212, 194, 1)"></circle>
        <circle r="5" cx="791.69" cy="370.51" fill="rgba(203, 212, 194, 1)"></circle>
        <circle r="5" cx="847.58" cy="508.84" fill="rgba(203, 212, 194, 1)"></circle>
        <circle r="5" cx="811.03" cy="698.19" fill="rgba(203, 212, 194, 1)"></circle>
        <circle r="5" cx="988.71" cy="64.77" fill="rgba(203, 212, 194, 1)"></circle>
        <circle r="5" cx="986.61" cy="234.61" fill="rgba(203, 212, 194, 1)"></circle>
        <circle r="5" cx="937.96" cy="371.67" fill="rgba(203, 212, 194, 1)"></circle>
        <circle r="5" cx="945.38" cy="528.16" fill="rgba(203, 212, 194, 1)"></circle>
        <circle r="5" cx="1008.96" cy="639.21" fill="rgba(203, 212, 194, 1)"></circle>
        <circle r="5" cx="1133.85" cy="-71.55" fill="rgba(203, 212, 194, 1)"></circle>
        <circle r="5" cx="1161.45" cy="38.22" fill="rgba(203, 212, 194, 1)"></circle>
        <circle r="5" cx="1102.14" cy="237.46" fill="rgba(203, 212, 194, 1)"></circle>
        <circle r="5" cx="1138.25" cy="338.32" fill="rgba(203, 212, 194, 1)"></circle>
        <circle r="5" cx="1260.05" cy="-112.42" fill="rgba(203, 212, 194, 1)"></circle>
        <circle r="5" cx="1300.08" cy="105.53" fill="rgba(203, 212, 194, 1)"></circle>
        <circle r="5" cx="1294.79" cy="231.27" fill="rgba(203, 212, 194, 1)"></circle>
        <circle r="5" cx="1262.44" cy="349.7" fill="rgba(203, 212, 194, 1)"></circle>
        <circle r="5" cx="1287.79" cy="556.39" fill="rgba(203, 212, 194, 1)"></circle>
        <circle r="5" cx="1390.92" cy="-68.2" fill="rgba(203, 212, 194, 1)"></circle>
        <circle r="5" cx="1415.98" cy="92.14" fill="rgba(203, 212, 194, 1)"></circle>
        <circle r="5" cx="1439.68" cy="246.56" fill="rgba(203, 212, 194, 1)"></circle>
        <circle r="5" cx="1441.84" cy="373.04" fill="rgba(203, 212, 194, 1)"></circle>
        <circle r="5" cx="1399.46" cy="557.3" fill="rgba(203, 212, 194, 1)"></circle>
        <circle r="5" cx="1394.06" cy="669.89" fill="rgba(203, 212, 194, 1)"></circle>
        <circle r="5" cx="1581.05" cy="-38.39" fill="rgba(203, 212, 194, 1)"></circle>
        <circle r="5" cx="1538.55" cy="54.76" fill="rgba(203, 212, 194, 1)"></circle>
        <circle r="5" cx="1553.79" cy="196.47" fill="rgba(203, 212, 194, 1)"></circle>
        <circle r="5" cx="1538.84" cy="340.91" fill="rgba(203, 212, 194, 1)"></circle>
        <circle r="5" cx="1551.53" cy="558.79" fill="rgba(203, 212, 194, 1)"></circle>
        <circle r="5" cx="1587.13" cy="675.37" fill="rgba(203, 212, 194, 1)"></circle>
<path d="M638.62 538.01L522.83 507.33" stroke="hsl(54.8, 11.2%, 52.3%)" stroke-width="1.5"></path>
<path d="M638.62 538.01L696.25 669.01" stroke="hsl(54.8, 11.2%, 52.3%)" stroke-width="1.5"></path>
<path d="M638.62 538.01L538.08 670.27" stroke="hsl(54.8, 11.2%, 52.3%)" stroke-width="1.5"></path>
<path d="M638.62 538.01L823.9 517.81" stroke="hsl(54.8, 11.2%, 52.3%)" stroke-width="1.5"></path>
<path d="M638.62 538.01L818.94 700.18" stroke="hsl(54.8, 11.2%, 52.3%)" stroke-width="1.5"></path>
<path d="M638.62 538.01L392.11 497.14" stroke="hsl(54.8, 11.2%, 52.3%)" stroke-width="1.5"></path>
<path d="M696.25 669.01L818.94 700.18" stroke="hsl(54.8, 11.2%, 52.3%)" stroke-width="1.5"></path>
<path d="M696.25 669.01L538.08 670.27" stroke="hsl(54.8, 11.2%, 52.3%)" stroke-width="1.5"></path>
<path d="M696.25 669.01L823.9 517.81" stroke="hsl(54.8, 11.2%, 52.3%)" stroke-width="1.5"></path>
<path d="M818.94 700.18L823.9 517.81" stroke="hsl(54.8, 11.2%, 52.3%)" stroke-width="1.5"></path>
<path d="M818.94 700.18L538.08 670.27" stroke="hsl(54.8, 11.2%, 52.3%)" stroke-width="1.5"></path>
<path d="M968.1 399.18L1090.34 373.03" stroke="hsl(54.8, 11.2%, 52.3%)" stroke-width="1.5"></path>
<path d="M968.1 399.18L839.02 350.96" stroke="hsl(54.8, 11.2%, 52.3%)" stroke-width="1.5"></path>
<path d="M968.1 399.18L823.9 517.81" stroke="hsl(54.8, 11.2%, 52.3%)" stroke-width="1.5"></path>
<path d="M1090.34 373.03L1108.81 231.1" stroke="hsl(54.8, 11.2%, 52.3%)" stroke-width="1.5"></path>
<path d="M1090.34 373.03L1242.62 366.9" stroke="hsl(54.8, 11.2%, 52.3%)" stroke-width="1.5"></path>
<path d="M1090.34 373.03L1117.76 534.68" stroke="hsl(54.8, 11.2%, 52.3%)" stroke-width="1.5"></path>
<path d="M1090.34 373.03L1273.36 499.62" stroke="hsl(54.8, 11.2%, 52.3%)" stroke-width="1.5"></path>
<path d="M1304.28 93.11L1406.13 71.57" stroke="hsl(54.8, 11.2%, 52.3%)" stroke-width="1.5"></path>
<path d="M1304.28 93.11L1292.77 228.85" stroke="hsl(54.8, 11.2%, 52.3%)" stroke-width="1.5"></path>
<path d="M1304.28 93.11L1161.57 80.17" stroke="hsl(54.8, 11.2%, 52.3%)" stroke-width="1.5"></path>
<path d="M1304.28 93.11L1304.92 -69.78" stroke="hsl(54.8, 11.2%, 52.3%)" stroke-width="1.5"></path>
<path d="M1304.28 93.11L1394.86 -52.06" stroke="hsl(54.8, 11.2%, 52.3%)" stroke-width="1.5"></path>
<path d="M1273.36 499.62L1242.62 366.9" stroke="hsl(54.8, 11.2%, 52.3%)" stroke-width="1.5"></path>
<path d="M1273.36 499.62L1423.01 523.11" stroke="hsl(54.8, 11.2%, 52.3%)" stroke-width="1.5"></path>
<path d="M1273.36 499.62L1117.76 534.68" stroke="hsl(54.8, 11.2%, 52.3%)" stroke-width="1.5"></path>
<path d="M1273.36 499.62L1287.85 705.02" stroke="hsl(54.8, 11.2%, 52.3%)" stroke-width="1.5"></path>
<path d="M1273.36 499.62L1408.5 341.75" stroke="hsl(54.8, 11.2%, 52.3%)" stroke-width="1.5"></path>
<path d="M1406.13 71.57L1576.69 53.79" stroke="hsl(54.8, 11.2%, 52.3%)" stroke-width="1.5"></path>
<path d="M1406.13 71.57L1304.92 -69.78" stroke="hsl(54.8, 11.2%, 52.3%)" stroke-width="1.5"></path>
<path d="M1406.13 71.57L1403.65 260.33" stroke="hsl(54.8, 11.2%, 52.3%)" stroke-width="1.5"></path>
<path d="M1403.65 260.33L1408.5 341.75" stroke="hsl(54.8, 11.2%, 52.3%)" stroke-width="1.5"></path>
<path d="M1403.65 260.33L1292.77 228.85" stroke="hsl(54.8, 11.2%, 52.3%)" stroke-width="1.5"></path>
<path d="M1403.65 260.33L1242.62 366.9" stroke="hsl(54.8, 11.2%, 52.3%)" stroke-width="1.5"></path>
<path d="M1403.65 260.33L1304.28 93.11" stroke="hsl(54.8, 11.2%, 52.3%)" stroke-width="1.5"></path>
<path d="M-77.62 507.22L-52.41 656.41" stroke="hsl(54.8, 11.2%, 52.3%)" stroke-width="1.5"></path>
<path d="M-77.62 507.22L82.27 537.75" stroke="hsl(54.8, 11.2%, 52.3%)" stroke-width="1.5"></path>
<path d="M-77.62 507.22L111.22 678.07" stroke="hsl(54.8, 11.2%, 52.3%)" stroke-width="1.5"></path>
<path d="M-52.41 656.41L111.22 678.07" stroke="hsl(54.8, 11.2%, 52.3%)" stroke-width="1.5"></path>
<path d="M-52.41 656.41L82.27 537.75" stroke="hsl(54.8, 11.2%, 52.3%)" stroke-width="1.5"></path>
<path d="M-52.41 656.41L200.55 562.3" stroke="hsl(54.8, 11.2%, 52.3%)" stroke-width="1.5"></path>
<path d="M-52.41 656.41L218.58 707.12" stroke="hsl(54.8, 11.2%, 52.3%)" stroke-width="1.5"></path>
<path d="M82.27 537.75L200.55 562.3" stroke="hsl(54.8, 11.2%, 52.3%)" stroke-width="1.5"></path>
<path d="M82.27 537.75L111.22 678.07" stroke="hsl(54.8, 11.2%, 52.3%)" stroke-width="1.5"></path>
<path d="M111.22 678.07L218.58 707.12" stroke="hsl(54.8, 11.2%, 52.3%)" stroke-width="1.5"></path>
<path d="M218.58 707.12L200.55 562.3" stroke="hsl(54.8, 11.2%, 52.3%)" stroke-width="1.5"></path>
<path d="M392.11 497.14L522.83 507.33" stroke="hsl(54.8, 11.2%, 52.3%)" stroke-width="1.5"></path>
<path d="M392.11 497.14L365.63 642.72" stroke="hsl(54.8, 11.2%, 52.3%)" stroke-width="1.5"></path>
<path d="M392.11 497.14L200.55 562.3" stroke="hsl(54.8, 11.2%, 52.3%)" stroke-width="1.5"></path>
<path d="M365.63 642.72L218.58 707.12" stroke="hsl(54.8, 11.2%, 52.3%)" stroke-width="1.5"></path>
<path d="M365.63 642.72L538.08 670.27" stroke="hsl(54.8, 11.2%, 52.3%)" stroke-width="1.5"></path>
<path d="M365.63 642.72L200.55 562.3" stroke="hsl(54.8, 11.2%, 52.3%)" stroke-width="1.5"></path>
<path d="M365.63 642.72L522.83 507.33" stroke="hsl(54.8, 11.2%, 52.3%)" stroke-width="1.5"></path>
<path d="M522.83 507.33L538.08 670.27" stroke="hsl(54.8, 11.2%, 52.3%)" stroke-width="1.5"></path>
<path d="M839.02 350.96L823.9 517.81" stroke="hsl(54.8, 11.2%, 52.3%)" stroke-width="1.5"></path>
<path d="M1161.57 80.17L1108.81 231.1" stroke="hsl(54.8, 11.2%, 52.3%)" stroke-width="1.5"></path>
<path d="M1161.57 80.17L1292.77 228.85" stroke="hsl(54.8, 11.2%, 52.3%)" stroke-width="1.5"></path>
<path d="M1108.81 231.1L1292.77 228.85" stroke="hsl(54.8, 11.2%, 52.3%)" stroke-width="1.5"></path>
<path d="M1117.76 534.68L1137.36 698.97" stroke="hsl(54.8, 11.2%, 52.3%)" stroke-width="1.5"></path>
<path d="M1117.76 534.68L968.1 399.18" stroke="hsl(54.8, 11.2%, 52.3%)" stroke-width="1.5"></path>
<path d="M1117.76 534.68L1242.62 366.9" stroke="hsl(54.8, 11.2%, 52.3%)" stroke-width="1.5"></path>
<path d="M1137.36 698.97L1287.85 705.02" stroke="hsl(54.8, 11.2%, 52.3%)" stroke-width="1.5"></path>
<path d="M1137.36 698.97L1273.36 499.62" stroke="hsl(54.8, 11.2%, 52.3%)" stroke-width="1.5"></path>
<path d="M1292.77 228.85L1242.62 366.9" stroke="hsl(54.8, 11.2%, 52.3%)" stroke-width="1.5"></path>
<path d="M1292.77 228.85L1408.5 341.75" stroke="hsl(54.8, 11.2%, 52.3%)" stroke-width="1.5"></path>
<path d="M1287.85 705.02L1407.26 665.41" stroke="hsl(54.8, 11.2%, 52.3%)" stroke-width="1.5"></path>
<path d="M1287.85 705.02L1423.01 523.11" stroke="hsl(54.8, 11.2%, 52.3%)" stroke-width="1.5"></path>
<path d="M1287.85 705.02L1117.76 534.68" stroke="hsl(54.8, 11.2%, 52.3%)" stroke-width="1.5"></path>
<path d="M1408.5 341.75L1242.62 366.9" stroke="hsl(54.8, 11.2%, 52.3%)" stroke-width="1.5"></path>
<path d="M1408.5 341.75L1567.68 406.26" stroke="hsl(54.8, 11.2%, 52.3%)" stroke-width="1.5"></path>
<path d="M1423.01 523.11L1407.26 665.41" stroke="hsl(54.8, 11.2%, 52.3%)" stroke-width="1.5"></path>
<path d="M1423.01 523.11L1574.16 489.19" stroke="hsl(54.8, 11.2%, 52.3%)" stroke-width="1.5"></path>
<path d="M1407.26 665.41L1560.19 681.78" stroke="hsl(54.8, 11.2%, 52.3%)" stroke-width="1.5"></path>
<path d="M1407.26 665.41L1273.36 499.62" stroke="hsl(54.8, 11.2%, 52.3%)" stroke-width="1.5"></path>
<path d="M1407.26 665.41L1574.16 489.19" stroke="hsl(54.8, 11.2%, 52.3%)" stroke-width="1.5"></path>
<path d="M1583.74 -96.64L1576.69 53.79" stroke="hsl(54.8, 11.2%, 52.3%)" stroke-width="1.5"></path>
<path d="M1583.74 -96.64L1394.86 -52.06" stroke="hsl(54.8, 11.2%, 52.3%)" stroke-width="1.5"></path>
<path d="M1583.74 -96.64L1406.13 71.57" stroke="hsl(54.8, 11.2%, 52.3%)" stroke-width="1.5"></path>
<path d="M1576.69 53.79L1602.23 197.6" stroke="hsl(54.8, 11.2%, 52.3%)" stroke-width="1.5"></path>
<path d="M1602.23 197.6L1403.65 260.33" stroke="hsl(54.8, 11.2%, 52.3%)" stroke-width="1.5"></path>
<path d="M1602.23 197.6L1567.68 406.26" stroke="hsl(54.8, 11.2%, 52.3%)" stroke-width="1.5"></path>
<path d="M1602.23 197.6L1406.13 71.57" stroke="hsl(54.8, 11.2%, 52.3%)" stroke-width="1.5"></path>
<path d="M1567.68 406.26L1574.16 489.19" stroke="hsl(54.8, 11.2%, 52.3%)" stroke-width="1.5"></path>
<path d="M1574.16 489.19L1560.19 681.78" stroke="hsl(54.8, 11.2%, 52.3%)" stroke-width="1.5"></path>

<path d="M-77.62 507.22L-52.41 656.41L82.27 537.75L111.22 678.07L200.55 562.3L218.58 707.12" stroke="rgba(203, 212, 194, 1)" stroke-width="1.5"></path>
    <path d="M365.63 642.72L392.11 497.14L522.83 507.33L538.08 670.27L839.02 350.96L823.9 517.81" stroke="rgba(203, 212, 194, 1)" stroke-width="1.5"></path>
    <path d="M1090.34 373.03L1117.76 534.68L1304.92 -69.78L1292.77 228.85L1242.62 366.9L1287.85 705.02" stroke="rgba(203, 212, 194, 1)" stroke-width="1.5"></path>
    <path d="M1408.5 341.75L1423.01 523.11L1560.19 681.78L1576.69 53.79L1602.23 197.6" stroke="rgba(203, 212, 194, 1)" stroke-width="1.5"></path>
<!-- Bottom Line Extensions for continuity -->
        <path d="M-77.62 507.22L-52.41 656.41L82.27 537.75L111.22 678.07L200.55 562.3L218.58 707.12" stroke="rgba(203, 212, 194, 1)" stroke-width="1.5"></path>
        <path d="M365.63 642.72L392.11 497.14L522.83 507.33L538.08 670.27L839.02 350.96L823.9 517.81" stroke="rgba(203, 212, 194, 1)" stroke-width="1.5"></path>
        <path d="M1090.34 373.03L1117.76 534.68L1304.92 -69.78L1292.77 228.85L1242.62 366.9L1287.85 705.02" stroke="rgba(203, 212, 194, 1)" stroke-width="1.5"></path>
        <path d="M1408.5 341.75L1423.01 523.11L1560.19 681.78L1576.69 53.79L1602.23 197.6" stroke="rgba(203, 212, 194, 1)" stroke-width="1.5"></path>

        <!-- Connection Paths -->
        <path d="M638.62 538.01L522.83 507.33L696.25 669.01L538.08 670.27L823.9 517.81L818.94 700.18L392.11 497.14" stroke="hsl(54.8, 11.2%, 52.3%)" stroke-width="1.5"></path>
        <path d="M968.1 399.18L1090.34 373.03L839.02 350.96L823.9 517.81" stroke="hsl(54.8, 11.2%, 52.3%)" stroke-width="1.5"></path>
        <path d="M1304.28 93.11L1406.13 71.57L1292.77 228.85L1161.57 80.17L1304.92 -69.78L1394.86 -52.06" stroke="hsl(54.8, 11.2%, 52.3%)" stroke-width="1.5"></path>

        <!-- Points and Circles -->
        <circle r="5" cx="-77.62" cy="507.22" fill="#b9b8ad"></circle>
        <circle r="5" cx="-52.41" cy="656.41" fill="#b9b8ad"></circle>
        <circle r="5" cx="82.27" cy="537.75" fill="#b9b8ad"></circle>
        <circle r="5" cx="111.22" cy="678.07" fill="#b9b8ad"></circle>
        <circle r="5" cx="200.55" cy="562.3" fill="#b9b8ad"></circle>
        <circle r="5" cx="218.58" cy="707.12" fill="#b9b8ad"></circle>
        <circle r="5" cx="392.11" cy="497.14" fill="#b9b8ad"></circle>
        <circle r="5" cx="365.63" cy="642.72" fill="#b9b8ad"></circle>
        <circle r="5" cx="522.83" cy="507.33" fill="#b9b8ad"></circle>
        <circle r="5" cx="538.08" cy="670.27" fill="#b9b8ad"></circle>
        <circle r="5" cx="839.02" cy="350.96" fill="#b9b8ad"></circle>
        <circle r="5" cx="823.9" cy="517.81" fill="#b9b8ad"></circle>
        <circle r="5" cx="1161.57" cy="80.17" fill="#b9b8ad"></circle>
        <circle r="5" cx="1108.81" cy="231.1" fill="#b9b8ad"></circle>
        <circle r="5" cx="1117.76" cy="534.68" fill="#b9b8ad"></circle>
        <circle r="5" cx="1137.36" cy="698.97" fill="#b9b8ad"></circle>
        <circle r="5" cx="1304.92" cy="-69.78" fill="#b9b8ad"></circle>
        <circle r="5" cx="1292.77" cy="228.85" fill="#b9b8ad"></circle>
        <circle r="5" cx="1242.62" cy="366.9" fill="#b9b8ad"></circle>
        <circle r="5" cx="1287.85" cy="705.02" fill="#b9b8ad"></circle>
        <circle r="5" cx="1408.5" cy="341.75" fill="#b9b8ad"></circle>
        <circle r="5" cx="1423.01" cy="523.11" fill="#b9b8ad"></circle>
        <circle r="5" cx="1407.26" cy="665.41" fill="#b9b8ad"></circle>
        <circle r="5" cx="1583.74" cy="-96.64" fill="#b9b8ad"></circle>
        <circle r="5" cx="1576.69" cy="53.79" fill="#b9b8ad"></circle>
        <circle r="5" cx="1602.23" cy="197.6" fill="#b9b8ad"></circle>
        <circle r="5" cx="1567.68" cy="406.26" fill="#b9b8ad"></circle>
        <circle r="5" cx="1574.16" cy="489.19" fill="#b9b8ad"></circle>
        <circle r="5" cx="1560.19" cy="681.78" fill="#b9b8ad"></circle>
    </g>
    <defs>
        <mask id="SvgjsMask1028">
            <rect width="1440" height="560" fill="#ffffff"></rect>
        </mask>
    </defs>
</svg>