<svg width="32" height="32" viewBox="0 0 32 32" fill="none" xmlns="http://www.w3.org/2000/svg">
<path d="M16.5 11.25C16.5 11.3881 16.3881 11.5 16.25 11.5C16.1119 11.5 16 11.3881 16 11.25V8.25C16 8.11193 16.1119 8 16.25 8C16.3881 8 16.5 8.11193 16.5 8.25V11.25Z" fill="black"/>
<path d="M12.3765 12.0732L10.4267 10.1235C10.3291 10.0258 10.1708 10.0258 10.0732 10.1235C9.97555 10.2211 9.97555 10.3794 10.0732 10.477L12.0229 12.4268C12.1206 12.5244 12.2789 12.5244 12.3765 12.4268C12.4741 12.3291 12.4741 12.1709 12.3765 12.0732Z" fill="black"/>
<path d="M22.3765 10.477L20.4268 12.4268C20.3291 12.5244 20.1709 12.5244 20.0732 12.4268C19.9756 12.3291 19.9756 12.1709 20.0732 12.0732L22.023 10.1235C22.1206 10.0258 22.2789 10.0258 22.3765 10.1235C22.4742 10.2211 22.4742 10.3794 22.3765 10.477Z" fill="black"/>
<path fill-rule="evenodd" clip-rule="evenodd" d="M16.25 12.25C18.4591 12.25 20.25 14.0409 20.25 16.25C20.25 18.4591 18.4591 20.25 16.25 20.25C14.0409 20.25 12.25 18.4591 12.25 16.25C12.25 14.0409 14.0409 12.25 16.25 12.25ZM16.25 12.65C18.2382 12.65 19.85 14.2618 19.85 16.25C19.85 18.2382 18.2382 19.85 16.25 19.85C14.2618 19.85 12.65 18.2382 12.65 16.25C12.65 14.2618 14.2618 12.65 16.25 12.65Z" fill="black"/>
<path d="M20.0732 20.1235C19.9756 20.2211 19.9756 20.3794 20.0732 20.4771L22.023 22.4268C22.1206 22.5244 22.2789 22.5244 22.3765 22.4268C22.4742 22.3292 22.4742 22.1709 22.3765 22.0733L20.4268 20.1235C20.3291 20.0259 20.1709 20.0259 20.0732 20.1235Z" fill="black"/>
<path d="M21 16.25C21 16.3881 21.1119 16.5 21.25 16.5H24.25C24.3881 16.5 24.5 16.3881 24.5 16.25C24.5 16.1119 24.3881 16 24.25 16H21.25C21.1119 16 21 16.1119 21 16.25Z" fill="black"/>
<path d="M16 21.25C16 21.1119 16.1119 21 16.25 21C16.3881 21 16.5 21.1119 16.5 21.25V24.25C16.5 24.3881 16.3881 24.5 16.25 24.5C16.1119 24.5 16 24.3881 16 24.25V21.25Z" fill="black"/>
<path d="M12.0229 20.1235C12.1206 20.0259 12.2789 20.0259 12.3765 20.1235C12.4741 20.2211 12.4741 20.3794 12.3765 20.4771L10.4267 22.4268C10.3291 22.5244 10.1708 22.5244 10.0732 22.4268C9.97555 22.3292 9.97555 22.1709 10.0732 22.0733L12.0229 20.1235Z" fill="black"/>
<path d="M11.5 16.25C11.5 16.1119 11.3881 16 11.25 16H8.25C8.11193 16 8 16.1119 8 16.25C8 16.3881 8.11193 16.5 8.25 16.5H11.25C11.3881 16.5 11.5 16.3881 11.5 16.25Z" fill="black"/>
</svg>
