<svg width="24" height="24" viewBox="0 0 24 24" fill="none" xmlns="http://www.w3.org/2000/svg">
<path fill-rule="evenodd" clip-rule="evenodd" d="M12 0C12.2761 0 12.5 0.223858 12.5 0.5V5.5C12.5 5.77614 12.2761 6 12 6C11.7239 6 11.5 5.77614 11.5 5.5V0.5C11.5 0.223858 11.7239 0 12 0ZM3.51473 3.51469C3.70999 3.31942 4.02658 3.31942 4.22184 3.51469L7.75737 7.05022C7.95264 7.24548 7.95264 7.56206 7.75737 7.75733C7.56211 7.95259 7.24553 7.95259 7.05027 7.75733L3.51473 4.22179C3.31947 4.02653 3.31947 3.70995 3.51473 3.51469ZM16.2427 16.2426C16.4379 16.0473 16.7545 16.0473 16.9498 16.2426L20.4853 19.7781C20.6806 19.9734 20.6806 20.29 20.4853 20.4852C20.29 20.6805 19.9734 20.6805 19.7782 20.4852L16.2427 16.9497C16.0474 16.7545 16.0474 16.4379 16.2427 16.2426ZM3.51469 19.7782C3.31942 19.9734 3.31942 20.29 3.51469 20.4853C3.70995 20.6805 4.02653 20.6805 4.22179 20.4853L7.75733 16.9497C7.95259 16.7545 7.95259 16.4379 7.75733 16.2426C7.56206 16.0474 7.24548 16.0474 7.05022 16.2426L3.51469 19.7782ZM16.2426 7.05024C16.0473 7.2455 16.0473 7.56208 16.2426 7.75735C16.4379 7.95261 16.7545 7.95261 16.9497 7.75735L20.4852 4.22181C20.6805 4.02655 20.6805 3.70997 20.4852 3.5147C20.29 3.31944 19.9734 3.31944 19.7781 3.5147L16.2426 7.05024ZM0.5 11.5C0.223858 11.5 0 11.7239 0 12C0 12.2761 0.223858 12.5 0.5 12.5H5.5C5.77614 12.5 6 12.2761 6 12C6 11.7239 5.77614 11.5 5.5 11.5H0.5ZM18 12C18 11.7239 18.2239 11.5 18.5 11.5H23.5C23.7761 11.5 24 11.7239 24 12C24 12.2761 23.7761 12.5 23.5 12.5H18.5C18.2239 12.5 18 12.2761 18 12ZM12 18C12.2761 18 12.5 18.2239 12.5 18.5V23.5C12.5 23.7761 12.2761 24 12 24C11.7239 24 11.5 23.7761 11.5 23.5V18.5C11.5 18.2239 11.7239 18 12 18ZM12 17.5C15.0376 17.5 17.5 15.0376 17.5 12C17.5 8.96243 15.0376 6.5 12 6.5C8.96243 6.5 6.5 8.96243 6.5 12C6.5 15.0376 8.96243 17.5 12 17.5Z" fill="#CBD4C2"/>
</svg>
